<svg xmlns="http://www.w3.org/2000/svg" viewBox="0 0 110 76" aria-hidden="true">
  <defs>
    <clipPath id="plover-silhouette">
      <path d="M22 45 C 32 37, 46 32, 62 32 C 71 32, 77 31, 80 26 C 82 20, 86 17, 91 17 C 97 17, 100 22, 100 27 C 100 32, 96 35, 91 37 C 89 45, 84 52, 72 55 C 58 58, 40 54, 22 47 Z"/>
    </clipPath>
    <linearGradient id="plover-back" x1="0" y1="0" x2="0" y2="1">
      <stop offset="0" stop-color="#e3b950"/>
      <stop offset=".6" stop-color="#c49434"/>
      <stop offset="1" stop-color="#9b7228"/>
    </linearGradient>
    <linearGradient id="plover-belly" x1="1" y1="0" x2="0" y2="0">
      <stop offset="0" stop-color="#0d0b0a"/>
      <stop offset="1" stop-color="#1e1915"/>
    </linearGradient>
  </defs>
  <g class="wing wing--far">
    <path d="M58 34 C 48 15, 32 5, 14 5 C 26 15, 38 29, 52 42 Z" fill="#7a5a22"/>
  </g>
  <g class="wing wing--reach">
    <path d="M64 46 C 82 47, 98 52, 116 58 C 100 63, 80 58, 62 52 Z" fill="#c8983a"/>
    <path d="M70 50 C 84 52, 98 55, 112 59" fill="none" stroke="#8c6a2a" stroke-width=".8" stroke-linecap="round"/>
    <g fill="#1a1410">
      <ellipse cx="74" cy="51" rx="1.3" ry=".8" transform="rotate(10 74 51)"/>
      <ellipse cx="82" cy="53.5" rx="1.2" ry=".8" transform="rotate(14 82 53.5)"/>
      <ellipse cx="90" cy="55.5" rx="1.2" ry=".8" transform="rotate(16 90 55.5)"/>
      <ellipse cx="98" cy="57.5" rx="1.1" ry=".7" transform="rotate(18 98 57.5)"/>
      <ellipse cx="106" cy="59.5" rx="1" ry=".6" transform="rotate(18 106 59.5)"/>
    </g>
  </g>
  <path class="tail" d="M27 43 C 17 42, 8 44, 1 47.5 C 9 49.5, 18 49, 27 47 Z" fill="#3a2c16"/>
  <path d="M25 44.5 C 17 44.5, 10 46, 4 47.5" fill="none" stroke="#c49434" stroke-width=".8" stroke-linecap="round" opacity=".8"/>
  <g clip-path="url(#plover-silhouette)">
    <rect x="18" y="14" width="86" height="46" fill="url(#plover-back)"/>
    <g fill="#1a1410">
      <ellipse cx="44" cy="36" rx="1.4" ry=".9"/>
      <ellipse cx="51" cy="34" rx="1.4" ry=".9"/>
      <ellipse cx="58" cy="33.5" rx="1.4" ry=".9"/>
      <ellipse cx="65" cy="34" rx="1.3" ry=".9"/>
      <ellipse cx="72" cy="33" rx="1.2" ry=".8"/>
      <ellipse cx="38" cy="40" rx="1.3" ry=".9"/>
      <ellipse cx="47" cy="39.5" rx="1.4" ry=".9"/>
      <ellipse cx="55" cy="38" rx="1.4" ry=".9"/>
      <ellipse cx="62" cy="38.5" rx="1.3" ry=".9"/>
      <ellipse cx="69" cy="37.5" rx="1.2" ry=".8"/>
      <ellipse cx="32" cy="43" rx="1.2" ry=".8"/>
      <ellipse cx="42" cy="43" rx="1.3" ry=".8"/>
      <ellipse cx="51" cy="42.5" rx="1.3" ry=".8"/>
      <ellipse cx="59" cy="42.5" rx="1.2" ry=".8"/>
      <ellipse cx="84" cy="21" rx="1" ry=".7"/>
      <ellipse cx="89" cy="19" rx="1" ry=".7"/>
      <ellipse cx="94" cy="19.5" rx=".9" ry=".6"/>
      <ellipse cx="81" cy="27" rx=".9" ry=".6"/>
    </g>
    <g fill="#f3d67e">
      <circle cx="48" cy="36.5" r=".6"/>
      <circle cx="55" cy="35.5" r=".6"/>
      <circle cx="62" cy="36" r=".6"/>
      <circle cx="42" cy="41" r=".55"/>
      <circle cx="51" cy="40.5" r=".55"/>
      <circle cx="66" cy="40" r=".55"/>
      <circle cx="87" cy="20.5" r=".5"/>
    </g>
    <path d="M101 24 C 95 21, 88 21, 85 26 C 82 32, 83 40, 75 46 C 63 52, 44 52, 22 47.5 L 22 62 L 104 62 Z" fill="url(#plover-belly)"/>
    <path d="M101 24 C 95 21, 88 21, 85 26 C 82 32, 83 40, 75 46 C 63 52, 44 52, 22 47.5" fill="none" stroke="#f8f4ec" stroke-width="2" stroke-linecap="round"/>
  </g>
  <circle cx="93" cy="26.5" r="2" fill="#050404" stroke="#6b5530" stroke-width=".7"/>
  <circle cx="93.6" cy="25.9" r=".6" fill="#f8f4ec"/>
  <path d="M99.5 26 L 108 27.6 L 99.5 29.6 Z" fill="#1c1712"/>
  <g class="wing wing--near">
    <path d="M60 36 C 50 16, 34 6, 16 6 C 28 16, 40 30, 54 44 Z" fill="#c8983a"/>
    <path d="M56 38 C 46 24, 34 14, 22 10" fill="none" stroke="#8c6a2a" stroke-width=".9" stroke-linecap="round"/>
    <g fill="#1a1410">
      <ellipse cx="26" cy="11" rx="1.2" ry=".8" transform="rotate(-30 26 11)"/>
      <ellipse cx="33" cy="15" rx="1.3" ry=".8" transform="rotate(-35 33 15)"/>
      <ellipse cx="40" cy="20" rx="1.3" ry=".9" transform="rotate(-40 40 20)"/>
      <ellipse cx="46" cy="27" rx="1.3" ry=".9" transform="rotate(-45 46 27)"/>
      <ellipse cx="51" cy="34" rx="1.2" ry=".8" transform="rotate(-50 51 34)"/>
      <ellipse cx="37" cy="13" rx="1.1" ry=".7" transform="rotate(-35 37 13)"/>
    </g>
  </g>
  <g class="wing wing--rest">
    <path d="M75 33 C 60 30, 40 34, 14 44 C 36 45, 56 42, 75 39 Z" fill="#c8983a"/>
    <path d="M72 36 C 56 36, 38 39, 18 44" fill="none" stroke="#8c6a2a" stroke-width=".8" stroke-linecap="round"/>
    <path d="M30 41 C 24 42, 18 43, 14 44 C 20 44.5, 26 44, 31 43 Z" fill="#3a2c16"/>
    <g fill="#1a1410">
      <ellipse cx="68" cy="34" rx="1.2" ry=".8"/>
      <ellipse cx="61" cy="34" rx="1.3" ry=".8"/>
      <ellipse cx="54" cy="35" rx="1.3" ry=".8"/>
      <ellipse cx="47" cy="36.5" rx="1.2" ry=".8"/>
      <ellipse cx="40" cy="38.5" rx="1.1" ry=".7"/>
      <ellipse cx="64" cy="38" rx="1.1" ry=".7"/>
      <ellipse cx="56" cy="39" rx="1.1" ry=".7"/>
    </g>
  </g>
</svg>
